<svg width="34" height="35" viewBox="0 0 34 35" fill="none" xmlns="http://www.w3.org/2000/svg">
<path d="M27.3144 16.1452V15.2132C27.3144 15.0738 27.3144 15.004 27.3136 14.945C27.2513 10.4877 23.7397 6.88977 19.3892 6.82593C19.3316 6.82509 19.2636 6.82509 19.1275 6.82509H18.2178M33 17.3103V15.6792C33 14.2876 33 13.5918 32.9487 13.0053C32.3938 6.65436 27.4812 1.62113 21.2826 1.05251C20.7102 1 20.031 0.999998 18.6728 1L17.0809 1M11.8993 12.9011C11.1704 14.6143 11.5393 16.6099 12.8291 17.9313L16.6833 21.8803C17.9731 23.2017 19.9208 23.5797 21.5929 22.8329C23.2649 22.0862 25.2127 22.4641 26.5024 23.7856L28.8473 26.1881C28.9609 26.3045 29.0177 26.3626 29.0637 26.4139C30.1943 27.6746 30.1943 29.6123 29.0637 30.873C29.0177 30.9242 28.9609 30.9824 28.8473 31.0988L27.422 32.5592C26.2613 33.7484 24.5881 34.2476 22.9857 33.8828C12.0675 31.3969 3.54067 22.6605 1.11442 11.4741C0.75833 9.83235 1.24558 8.11799 2.40628 6.92877L3.83158 5.46845C3.94519 5.35205 4.00199 5.29385 4.05203 5.24674C5.28246 4.08836 7.17373 4.08836 8.40415 5.24674C8.4542 5.29385 8.511 5.35205 8.6246 5.46845L10.9695 7.87095C12.2592 9.1924 12.6281 11.188 11.8993 12.9011Z" stroke="#F3EADB" stroke-width="2" stroke-linecap="round"/>
</svg>
