<svg width="35" height="27" viewBox="0 0 35 27" fill="none" xmlns="http://www.w3.org/2000/svg">
<path d="M26.6667 21.3125H19.3333M33.9797 10.375C34 11.2766 34 12.307 34 13.5C34 17.8754 34 20.0631 33.0009 21.7343C32.1221 23.2043 30.7197 24.3995 28.9949 25.1485C27.0341 26 24.4671 26 19.3333 26H15.6667C10.5329 26 7.96594 26 6.00509 25.1485C4.28027 24.3995 2.87795 23.2043 1.99911 21.7343C1 20.0631 1 17.8754 1 13.5C1 12.307 1 11.2766 1.02025 10.375M33.9797 10.375C33.9257 7.96997 33.7276 6.48121 33.0009 5.2657C32.1221 3.79568 30.7197 2.60052 28.9949 1.85151C27.0341 1 24.4671 1 19.3333 1H15.6667C10.5329 1 7.96594 1 6.00509 1.85151C4.28027 2.60052 2.87795 3.79568 1.99911 5.2657C1.27242 6.48121 1.07428 7.96997 1.02025 10.375M33.9797 10.375H1.02025" stroke="#EDC89E" stroke-width="2" stroke-linecap="round"/>
</svg>
