<svg width="40" height="44" viewBox="0 0 40 44" fill="none" xmlns="http://www.w3.org/2000/svg">
<path d="M37.4995 1.40279C37.4961 0.624587 36.8686 -0.00345772 36.098 1.43269e-05C35.3274 0.00348648 34.7054 0.63716 34.7089 1.41536L34.7254 5.14606C34.7317 6.58891 34.7342 7.58232 34.6631 8.34035C31.0123 4.36778 25.7933 1.87877 20 1.87877C8.9543 1.87877 0 10.9212 0 22.0755C0 22.8538 0.624719 23.4846 1.39535 23.4846C2.16598 23.4846 2.7907 22.8538 2.7907 22.0755C2.7907 12.4776 10.4956 4.69692 20 4.69692C25.1153 4.69692 29.7083 6.949 32.8624 10.5295C32.7708 10.5441 32.6713 10.5575 32.5631 10.5694C31.7978 10.6538 30.7863 10.6514 29.2804 10.6446L25.5861 10.6279C24.8154 10.6245 24.1879 11.2525 24.1845 12.0307C24.1811 12.8089 24.803 13.4426 25.5736 13.4461L29.3486 13.4631C30.753 13.4694 31.9243 13.4747 32.866 13.3709C33.8538 13.262 34.7642 13.0185 35.5551 12.4004C35.8953 12.1345 36.2008 11.8261 36.4641 11.4825C37.0761 10.6838 37.3172 9.76449 37.4251 8.76699C37.5279 7.81599 37.5227 6.63318 37.5164 5.21496L37.4995 1.40279Z" fill="#343434"/>
<path d="M40 22.0755C40 21.2973 39.3753 20.6665 38.6047 20.6665C37.834 20.6665 37.2093 21.2973 37.2093 22.0755C37.2093 31.6735 29.5044 39.4542 20 39.4542C14.8118 39.4542 10.1608 37.1374 7.00354 33.4676C7.08993 33.4541 7.18319 33.4417 7.28408 33.4306C8.04936 33.3462 9.06087 33.3486 10.5668 33.3554L14.2611 33.3721C15.0317 33.3755 15.6592 32.7475 15.6627 31.9693C15.6661 31.1911 15.0442 30.5574 14.2736 30.5539L10.4986 30.5369C9.09426 30.5306 7.92285 30.5253 6.98112 30.6291C5.99334 30.738 5.08296 30.9815 4.29211 31.5996C3.95184 31.8655 3.64642 32.1739 3.38308 32.5175C2.77105 33.3162 2.52994 34.2355 2.42207 35.233C2.31922 36.184 2.32448 37.3669 2.33079 38.7851L2.34763 42.5972C2.35107 43.3754 2.97857 44.0035 3.74919 44C4.51981 43.9965 5.14174 43.3628 5.1383 42.5846L5.12182 38.8539C5.1154 37.4012 5.11292 36.4041 5.18557 35.6442C8.84268 39.7136 14.1261 42.2723 20 42.2723C31.0457 42.2723 40 33.2299 40 22.0755Z" fill="#343434"/>
</svg>
