<svg width="37" height="37" viewBox="0 0 37 37" fill="none" xmlns="http://www.w3.org/2000/svg">
<path d="M15.9667 8.97862C15.4604 8.47683 14.6432 8.48048 14.1414 8.98677C13.6396 9.49306 13.6433 10.3103 14.1496 10.8121L17.1835 13.8191C18.4148 15.0394 19.2595 15.8793 19.831 16.591C20.3861 17.2823 20.5766 17.7263 20.6273 18.124C20.6591 18.3737 20.6591 18.6263 20.6273 18.876C20.5766 19.2737 20.3861 19.7177 19.831 20.409C19.2595 21.1207 18.4148 21.9606 17.1835 23.1809L14.1496 26.1879C13.6433 26.6897 13.6396 27.5069 14.1414 28.0132C14.6432 28.5195 15.4604 28.5232 15.9667 28.0214L19.0554 24.9602C20.2186 23.8073 21.1694 22.865 21.8437 22.0254C22.5448 21.1523 23.0524 20.2661 23.188 19.2024C23.2474 18.736 23.2474 18.264 23.188 17.7976C23.0524 16.7339 22.5448 15.8477 21.8437 14.9746C21.1694 14.135 20.2186 13.1927 19.0554 12.0398L15.9667 8.97862Z" fill="white"/>
<path fill-rule="evenodd" clip-rule="evenodd" d="M18.5 0C8.28273 0 0 8.28273 0 18.5C0 28.7173 8.28273 37 18.5 37C28.7173 37 37 28.7173 37 18.5C37 8.28273 28.7173 0 18.5 0ZM2.5814 18.5C2.5814 9.7084 9.7084 2.5814 18.5 2.5814C27.2916 2.5814 34.4186 9.7084 34.4186 18.5C34.4186 27.2916 27.2916 34.4186 18.5 34.4186C9.7084 34.4186 2.5814 27.2916 2.5814 18.5Z" fill="white"/>
</svg>
