<svg width="20" height="10" viewBox="0 0 20 10" fill="none" xmlns="http://www.w3.org/2000/svg">
<path d="M2.23077 0.403712C1.72366 -0.131191 0.897805 -0.135043 0.386158 0.395108C-0.125489 0.925261 -0.129173 1.78866 0.377929 2.32356L3.47147 5.58671C4.63659 6.81575 5.58885 7.82025 6.43732 8.53262C7.31962 9.2734 8.21517 9.80965 9.29015 9.95289C9.7615 10.0157 10.2385 10.0157 10.7098 9.95289C11.7848 9.80965 12.6804 9.2734 13.5627 8.53262C14.4111 7.82025 15.3634 6.81577 16.5285 5.58674L19.6221 2.32356C20.1292 1.78866 20.1255 0.92526 19.6138 0.395108C19.1022 -0.135044 18.2763 -0.131191 17.7692 0.403712L14.7304 3.60911C13.4972 4.91001 12.6484 5.80237 11.9292 6.40619C11.2306 6.99274 10.7819 7.19396 10.38 7.24751C10.1277 7.28113 9.87234 7.28113 9.61999 7.24751C9.21812 7.19396 8.76939 6.99274 8.07079 6.40619C7.35161 5.80237 6.50285 4.91001 5.26956 3.60911L2.23077 0.403712Z" fill="white"/>
</svg>
