<svg width="22" height="10" viewBox="0 0 22 10" fill="none" xmlns="http://www.w3.org/2000/svg">
<path d="M2.45384 0.403709C1.89603 -0.131195 0.987588 -0.135047 0.424776 0.395104C-0.138036 0.925257 -0.142089 1.78866 0.415723 2.32356L3.81862 5.58671C5.10025 6.81575 6.14773 7.82025 7.08105 8.53263C8.05159 9.27341 9.03669 9.80965 10.2192 9.95289C10.7377 10.0157 11.2623 10.0157 11.7808 9.95289C12.9633 9.80965 13.9484 9.27341 14.9189 8.53263C15.8523 7.82025 16.8997 6.81577 18.1814 5.58674L21.5843 2.32356C22.1421 1.78866 22.138 0.92526 21.5752 0.395109C21.0124 -0.135043 20.104 -0.131192 19.5462 0.403712L16.2035 3.60911C14.8469 4.91001 13.9132 5.80237 13.1221 6.40619C12.3537 6.99274 11.8601 7.19396 11.418 7.24751C11.1404 7.28113 10.8596 7.28113 10.582 7.24751C10.1399 7.19396 9.64633 6.99274 8.87787 6.40619C8.08678 5.80237 7.15313 4.91001 5.79652 3.60911L2.45384 0.403709Z" fill="white"/>
</svg>
