<svg width="6" height="12" viewBox="0 0 6 12" fill="none" xmlns="http://www.w3.org/2000/svg">
<path d="M1.39414 0.226757C1.07319 -0.0775037 0.555156 -0.0752929 0.237065 0.231695C-0.0810266 0.538683 -0.0787154 1.0342 0.242227 1.33846L2.16547 3.16174C2.946 3.90171 3.48142 4.41097 3.84372 4.84247C4.19564 5.26164 4.31637 5.53087 4.34851 5.772C4.36868 5.9234 4.36868 6.0766 4.34851 6.228C4.31637 6.46913 4.19564 6.73836 3.84372 7.15752C3.48143 7.58903 2.94601 8.09829 2.16547 8.83826L0.242227 10.6615C-0.0787154 10.9658 -0.0810266 11.4613 0.237065 11.7683C0.555156 12.0753 1.07319 12.0775 1.39414 11.7732L3.35203 9.91712C4.08945 9.21805 4.69215 8.64669 5.11958 8.13761C5.56404 7.60822 5.88579 7.0709 5.97174 6.42591C6.00942 6.1431 6.00942 5.8569 5.97174 5.57409C5.88579 4.9291 5.56404 4.39177 5.11958 3.86239C4.69215 3.35331 4.08945 2.78196 3.35202 2.08288L1.39414 0.226757Z" fill="#F8C790"/>
</svg>
