<svg width="26" height="24" viewBox="0 0 26 24" fill="none" xmlns="http://www.w3.org/2000/svg">
<path fill-rule="evenodd" clip-rule="evenodd" d="M7.22756 0.0438006C6.68801 0.213074 6.1733 0.647647 5.94998 1.12254C5.82912 1.37948 5.81757 1.81378 5.78399 7.38205L5.74789 13.3653L4.62879 12.078C3.42284 10.6907 3.14097 10.4633 2.46084 10.3287C1.46008 10.1307 0.406392 10.7248 0.0848133 11.6683C-0.0468074 12.0544 -0.0221151 12.7047 0.13723 13.0474C0.322496 13.446 6.15236 21.8748 6.56758 22.3444C7.23839 23.103 8.30587 23.6973 9.36692 23.9029C9.85658 23.9977 10.3419 24.0122 12.3621 23.9921C14.6445 23.9694 14.7998 23.9597 15.2783 23.8097C16.695 23.3656 17.8155 22.3294 18.3221 20.995C18.6097 20.2374 18.6438 19.4729 18.6209 14.3082L18.5995 9.47573L18.427 9.11068C18.0129 8.23442 16.923 7.7792 16.0003 8.09704C15.8415 8.15172 15.7054 8.197 15.6979 8.19755C15.6903 8.19811 15.6624 8.05099 15.6357 7.87068C15.527 7.13546 15.1228 6.58152 14.4841 6.29234C14.0627 6.10152 13.4683 6.07446 13.0201 6.22565L12.7292 6.32382L12.7023 4.8277C12.6784 3.49491 12.6591 3.29775 12.5262 3.02099C12.1668 2.27265 11.5602 1.89082 10.7297 1.8902C10.3905 1.88999 10.1471 1.92886 9.98965 2.00846L9.755 2.12706V1.89621C9.755 1.22491 9.27559 0.485139 8.63914 0.174414C8.32211 0.0196383 7.53643 -0.0530551 7.22756 0.0438006ZM14.7007 0.507783C13.7168 1.07159 13.6538 1.12523 13.6538 1.39867C13.6538 1.52287 13.7089 1.66411 13.7801 1.72259C14.0917 1.97822 15.5343 2.74485 15.7038 2.74485C16.0968 2.74485 16.3038 2.32222 16.0684 2.00086L15.956 1.8474H19.1008C22.1494 1.8474 22.25 1.84319 22.39 1.70933C22.5631 1.54379 22.5753 1.31266 22.422 1.10341L22.3096 0.94995H19.1328H15.956L16.0684 0.796485C16.3087 0.468502 16.1169 0.0524298 15.7254 0.0526369C15.5699 0.0527059 15.2364 0.200854 14.7007 0.507783ZM8.24558 1.05688C8.36449 1.11563 8.52521 1.26323 8.60268 1.3848C8.73943 1.59915 8.74369 1.77319 8.74391 7.18343L8.74419 12.7612L8.92145 12.9306C9.01892 13.0238 9.16657 13.1001 9.2496 13.1001C9.33263 13.1001 9.48027 13.0238 9.57774 12.9306L9.755 12.7612V8.14888C9.755 3.81378 9.76294 3.52246 9.8869 3.30141C10.039 3.03024 10.413 2.81389 10.7297 2.81389C11.0464 2.81389 11.4204 3.03024 11.5725 3.30141C11.6965 3.52253 11.7044 3.81461 11.7044 8.17526V12.8139L11.8946 12.9569C12.131 13.1348 12.2896 13.1377 12.5086 12.9682L12.6791 12.8363L12.7152 10.2241C12.7555 7.30866 12.7382 7.40386 13.2701 7.1572C13.6225 6.99366 13.9784 7.027 14.2769 7.2515C14.6529 7.53434 14.6646 7.63299 14.6646 10.5218C14.6646 13.1711 14.666 13.1961 14.8216 13.3545C15.0125 13.5487 15.2411 13.5586 15.4688 13.3824C15.6389 13.2509 15.6394 13.2455 15.6754 11.3404L15.7115 9.43031L15.9812 9.19414C16.2095 8.99428 16.3038 8.95804 16.5949 8.95825C17.0227 8.95852 17.3428 9.13546 17.5042 9.46075C17.6135 9.6809 17.6247 10.179 17.6237 14.7673C17.6226 20.267 17.6237 20.2491 17.2159 21.0838C16.9726 21.5819 16.1481 22.3978 15.6393 22.6439C14.8564 23.0226 14.6897 23.0411 12.0703 23.0401L9.6467 23.0392L9.05639 22.8427C8.33901 22.604 7.61787 22.1279 7.23276 21.639C6.64527 20.8931 1.06587 12.7797 0.998215 12.5729C0.794539 11.9501 1.36665 11.2361 2.06923 11.2361C2.57275 11.2361 2.75838 11.3936 4.1704 13.0184C4.91882 13.8797 5.65721 14.7164 5.81121 14.8777C6.13705 15.2191 6.35502 15.2527 6.61754 15.0016L6.79479 14.8322V8.23283C6.79479 0.947672 6.76815 1.36588 7.24958 1.08526C7.52777 0.923026 7.9505 0.910945 8.24558 1.05688ZM23.5854 3.03638C23.4449 3.22816 23.4431 3.371 23.579 3.54282C23.6373 3.61648 23.6861 3.70015 23.6873 3.72859C23.6886 3.75704 22.1626 3.78037 20.2962 3.78037C16.999 3.78037 16.8987 3.78431 16.7584 3.91844C16.5739 4.09482 16.5754 4.2672 16.7637 4.49592L16.9133 4.67782H20.3055H23.6978L23.5854 4.83129C23.4346 5.03708 23.4438 5.17605 23.6227 5.39337C23.8501 5.66992 24.0671 5.62443 24.9498 5.11529C25.9541 4.53603 26 4.49736 26 4.23041C26 3.95441 25.8758 3.84713 24.9317 3.30769C24.1005 2.83273 23.7816 2.76846 23.5854 3.03638Z" fill="white"/>
</svg>
