<svg width="19" height="33" viewBox="0 0 19 33" fill="none" xmlns="http://www.w3.org/2000/svg">
<path fill-rule="evenodd" clip-rule="evenodd" d="M10.2366 2.04048C10.2366 1.38858 9.69699 0.860107 9.03132 0.860107C8.36564 0.860107 7.826 1.38858 7.826 2.04048L7.82601 18.1721H4.42762C0.760164 18.1721 -1.31153 22.2943 0.925597 25.1402L5.52932 30.9969C7.29844 33.2475 10.7642 33.2475 12.5334 30.9969L17.1371 25.1402C19.3742 22.2943 17.3025 18.1721 13.6351 18.1721H10.2366L10.2366 2.04048ZM2.83579 23.7002C1.81891 22.4066 2.76059 20.5329 4.42762 20.5329H9.02331L9.03132 20.5329L9.03933 20.5329H13.6351C15.3021 20.5329 16.2438 22.4066 15.2269 23.7002L10.6232 29.5568C9.81902 30.5798 8.24366 30.5798 7.43951 29.5568L2.83579 23.7002Z" fill="#C8C8C8"/>
</svg>
