<svg width="109" height="21" viewBox="0 0 109 21" fill="none" xmlns="http://www.w3.org/2000/svg">
<path d="M20.3713 13.6243C20.3244 13.517 20.2072 13.448 20.0665 13.448H16.5426C16.3239 13.448 16.1676 13.2716 16.2379 13.103L18.2929 8.36473C18.3163 8.31106 18.3163 8.24973 18.2929 8.18839L16.5661 4.20153C16.4645 3.97152 16.066 3.97152 15.9644 4.20153L11.3857 14.7437C11.2841 14.9737 10.8778 14.9737 10.7841 14.7437L4.75985 0.176342C4.71296 0.0690033 4.59576 0 4.45512 0H0.321767C0.102988 0 -0.0532823 0.176342 0.0170394 0.345016L8.88538 20.7853C8.93226 20.8927 9.04947 20.9617 9.19011 20.9617H12.6046C12.7374 20.9617 12.8625 20.8927 12.9093 20.7853L14.7377 16.5761C14.7846 16.4688 14.9018 16.3998 15.0424 16.3998H21.1292C21.3479 16.3998 21.5042 16.2234 21.4339 16.0548L20.3791 13.6243H20.3713Z" fill="white"/>
<path d="M34.5294 7.15334H30.8257C30.6773 7.15334 30.5523 7.23001 30.4976 7.34502L27.3331 14.897C27.2237 15.1577 26.794 15.1577 26.6846 14.897L20.5588 0.291347C20.4885 0.115005 20.2853 0 20.0665 0H14.3783C14.1439 0 13.972 0.191676 14.0579 0.375685L15.0971 2.7678C15.144 2.8828 15.2768 2.95181 15.4175 2.95181H17.1208C17.2693 2.95181 17.3943 3.02848 17.449 3.14348L19.5977 8.19606L25.0281 20.77C25.075 20.885 25.2078 20.954 25.3485 20.954H28.7317C28.8802 20.954 29.0052 20.8773 29.0521 20.77L34.8419 7.52136C34.92 7.33735 34.7559 7.14567 34.5215 7.14567L34.5294 7.15334Z" fill="white"/>
<path d="M44.0228 17.7415V16.9365H43.4915V20.9617H44.0462V18.9069C44.0462 18.4315 44.1712 18.0635 44.4135 17.8028C44.6557 17.5422 44.9995 17.4195 45.4292 17.4195C45.4527 17.4195 45.4683 17.4195 45.4917 17.4195C45.5152 17.4195 45.5308 17.4195 45.5542 17.4195V16.8905C45.1557 16.8905 44.8198 16.9671 44.5463 17.1281C44.3041 17.2738 44.14 17.4808 44.0228 17.7338V17.7415Z" fill="white"/>
<path d="M50.0236 17.1512C49.7266 16.9825 49.3829 16.8981 48.9922 16.8981C48.6015 16.8981 48.2733 16.9825 47.9686 17.1588C47.6639 17.3352 47.4217 17.5728 47.2498 17.8872C47.0779 18.1939 46.9919 18.5465 46.9919 18.9452C46.9919 19.3439 47.0857 19.6966 47.2654 20.0033C47.4451 20.31 47.7029 20.5553 48.0233 20.7317C48.3437 20.908 48.7187 20.9923 49.1484 20.9923C49.4766 20.9923 49.7735 20.9387 50.0548 20.8237C50.3283 20.7087 50.5549 20.5476 50.7424 20.333L50.4299 19.9803C50.2736 20.1566 50.0861 20.2946 49.8751 20.379C49.6641 20.4633 49.4219 20.5093 49.1797 20.5093C48.8593 20.5093 48.5781 20.448 48.328 20.3176C48.078 20.1873 47.8905 20.0033 47.7498 19.7733C47.6326 19.5816 47.5779 19.3516 47.5623 19.1062H51.0003C51.0003 19.1062 51.0003 19.0449 51.0003 19.0219C51.0003 18.9912 51.0003 18.9682 51.0003 18.9452C51.0003 18.5389 50.9143 18.1862 50.7424 17.8719C50.5705 17.5652 50.3361 17.3198 50.0314 17.1512H50.0236ZM47.7186 18.0865C47.8436 17.8565 48.0155 17.6802 48.2421 17.5498C48.4687 17.4195 48.7187 17.3582 49 17.3582C49.2813 17.3582 49.5391 17.4195 49.7579 17.5498C49.9767 17.6802 50.1486 17.8565 50.2814 18.0789C50.383 18.2629 50.4377 18.4699 50.4533 18.6999H47.5545C47.5779 18.4775 47.6248 18.2705 47.7264 18.0865H47.7186Z" fill="white"/>
<path d="M55.9775 17.0821C55.7274 16.9595 55.4305 16.8981 55.1023 16.8981C54.7039 16.8981 54.3679 16.9825 54.0788 17.1435C53.8444 17.2815 53.6725 17.4732 53.5396 17.6955V16.9288H53.0083V20.954H53.5631V18.8379C53.5631 18.5312 53.6256 18.2705 53.735 18.0482C53.8522 17.8335 54.0163 17.6648 54.2351 17.5498C54.4538 17.4348 54.7039 17.3735 54.993 17.3735C55.3836 17.3735 55.6884 17.4808 55.9071 17.7032C56.1259 17.9179 56.2275 18.2399 56.2275 18.6616V20.9463H56.7823V18.6079C56.7823 18.2169 56.7119 17.8949 56.5635 17.6418C56.4228 17.3888 56.2197 17.1972 55.9697 17.0668L55.9775 17.0821Z" fill="white"/>
<path d="M60.5327 20.5323C60.3062 20.5323 60.1264 20.471 60.0014 20.3406C59.8764 20.2103 59.8217 20.034 59.8217 19.7963V17.3888H61.0719V16.9365H59.8217V16.0471H59.267V16.9365H58.5325V17.3888H59.267V19.8269C59.267 20.2026 59.3685 20.4863 59.5795 20.6933C59.7905 20.9003 60.0874 21 60.4702 21C60.6343 21 60.7906 20.977 60.939 20.931C61.0875 20.885 61.2281 20.816 61.3297 20.7163L61.1344 20.3253C60.9703 20.4633 60.7672 20.5323 60.5249 20.5323H60.5327Z" fill="white"/>
<path d="M67.5884 16.8981C67.268 16.8981 66.9555 16.9441 66.6664 17.0361C66.3773 17.1281 66.1272 17.2662 65.9163 17.4425L66.1663 17.8489C66.3304 17.7032 66.5335 17.5882 66.7757 17.5038C67.018 17.4195 67.268 17.3735 67.5337 17.3735C67.9165 17.3735 68.2134 17.4655 68.4088 17.6495C68.6041 17.8335 68.7057 18.0942 68.7057 18.4392V18.6846H67.4008C67.0102 18.6846 66.6976 18.7382 66.4632 18.8456C66.2288 18.9529 66.0647 19.0909 65.9631 19.2596C65.8616 19.4283 65.8069 19.6199 65.8069 19.8346C65.8069 20.0646 65.8694 20.264 65.9866 20.4403C66.1038 20.6166 66.2835 20.7547 66.5101 20.8543C66.7367 20.954 67.0023 21 67.3071 21C67.6977 21 68.0259 20.9233 68.2838 20.7623C68.4791 20.6397 68.6197 20.4786 68.7291 20.2946V20.9617H69.2604V18.4622C69.2604 17.9332 69.1198 17.5422 68.8307 17.2815C68.5416 17.0208 68.1275 16.8981 67.5962 16.8981H67.5884ZM68.2056 20.356C67.979 20.494 67.7134 20.5706 67.393 20.5706C67.0727 20.5706 66.807 20.5016 66.6273 20.3636C66.4476 20.2256 66.3538 20.0416 66.3538 19.8116C66.3538 19.6046 66.432 19.4359 66.5804 19.2979C66.7367 19.1599 67.0102 19.0909 67.4008 19.0909H68.6901V19.7503C68.5885 20.0186 68.4244 20.218 68.1978 20.356H68.2056Z" fill="white"/>
<path d="M75.48 17.5652C75.7144 17.4348 75.9801 17.3658 76.2692 17.3658C76.5114 17.3658 76.738 17.4118 76.949 17.5115C77.1599 17.6112 77.3318 17.7568 77.4725 17.9639L77.8866 17.6878C77.7225 17.4195 77.5037 17.2202 77.2224 17.0898C76.9411 16.9595 76.6286 16.8905 76.277 16.8905C75.8707 16.8905 75.5034 16.9748 75.1909 17.1512C74.8706 17.3275 74.6205 17.5652 74.433 17.8719C74.2455 18.1785 74.1595 18.5312 74.1595 18.9376C74.1595 19.3439 74.2533 19.6889 74.433 19.9956C74.6127 20.3023 74.8706 20.5476 75.1909 20.724C75.5113 20.9003 75.8785 20.9847 76.277 20.9847C76.6286 20.9847 76.9411 20.9157 77.2224 20.7853C77.5037 20.655 77.7225 20.448 77.8866 20.1873L77.4725 19.9113C77.3318 20.1106 77.1599 20.2563 76.949 20.356C76.738 20.4556 76.5114 20.5016 76.2692 20.5016C75.9801 20.5016 75.7144 20.4403 75.48 20.31C75.2456 20.1796 75.0581 19.9956 74.9252 19.7656C74.7924 19.5279 74.7221 19.2519 74.7221 18.9376C74.7221 18.6232 74.7924 18.3472 74.9252 18.1095C75.0581 17.8719 75.2456 17.6955 75.48 17.5652Z" fill="white"/>
<path d="M81.2933 16.8981C80.9729 16.8981 80.6604 16.9441 80.3713 17.0361C80.0822 17.1281 79.8321 17.2662 79.6212 17.4425L79.8712 17.8489C80.0353 17.7032 80.2384 17.5882 80.4807 17.5038C80.7229 17.4195 80.9729 17.3735 81.2386 17.3735C81.6214 17.3735 81.9183 17.4655 82.1137 17.6495C82.309 17.8335 82.4106 18.0942 82.4106 18.4392V18.6846H81.1057C80.7151 18.6846 80.4025 18.7382 80.1681 18.8456C79.9337 18.9529 79.7696 19.0909 79.6681 19.2596C79.5665 19.4283 79.5118 19.6199 79.5118 19.8346C79.5118 20.0646 79.5743 20.264 79.6915 20.4403C79.8087 20.6166 79.9884 20.7547 80.215 20.8543C80.4416 20.954 80.7073 21 81.012 21C81.4027 21 81.7308 20.9233 81.9887 20.7623C82.184 20.6397 82.3247 20.4786 82.434 20.2946V20.9617H82.9654V18.4622C82.9654 17.9332 82.8247 17.5422 82.5356 17.2815C82.2465 17.0208 81.8324 16.8981 81.3011 16.8981H81.2933ZM81.9105 20.356C81.6839 20.494 81.4183 20.5706 81.0979 20.5706C80.7776 20.5706 80.5119 20.5016 80.3322 20.3636C80.1525 20.2256 80.0587 20.0416 80.0587 19.8116C80.0587 19.6046 80.1369 19.4359 80.2853 19.2979C80.4416 19.1599 80.7151 19.0909 81.1057 19.0909H82.395V19.7503C82.2934 20.0186 82.1293 20.218 81.9027 20.356H81.9105Z" fill="white"/>
<path d="M85.8798 17.7415V16.9365H85.3485V20.9617H85.9032V18.9069C85.9032 18.4315 86.0283 18.0635 86.2705 17.8028C86.5127 17.5422 86.8565 17.4195 87.2862 17.4195C87.3097 17.4195 87.3253 17.4195 87.3487 17.4195C87.3722 17.4195 87.3878 17.4195 87.4113 17.4195V16.8905C87.0128 16.8905 86.6768 16.9671 86.4033 17.1281C86.1611 17.2662 85.997 17.4808 85.8798 17.7338V17.7415Z" fill="white"/>
<path d="M54.196 10.7185L55.4149 13.6166H58.7591L52.6098 0.107338H49.461L43.3274 13.6166H46.5934L47.8202 10.7185H54.2038H54.196ZM51.0081 3.17415L53.188 8.3494H48.8125L51.0003 3.17415H51.0081Z" fill="white"/>
<path d="M65.6115 0.107338H62.4236V13.6166H65.6115V0.107338Z" fill="white"/>
<path d="M85.5751 9.66813L82.4262 0.107338H79.4727L76.2301 9.59912L73.1203 0.107338H69.8152L74.3236 13.6166H77.7459L80.8635 4.46221L83.903 13.6166H87.3253L91.8259 0.107338H88.7786L85.5751 9.66813Z" fill="white"/>
<path d="M105.656 13.6166H109L102.843 0.107338H99.6941L93.5605 13.6166H96.8265L98.0533 10.7185H104.437L105.656 13.6166ZM99.0534 8.3494L101.241 3.17415L103.421 8.3494H99.0456H99.0534Z" fill="white"/>
</svg>
